<svg xmlns="http://www.w3.org/2000/svg" width="64" height="64" viewBox="0 0 64 64" fill="none">
  <rect width="64" height="64" rx="14" fill="#0B0B0F"/>
  <defs>
    <linearGradient id="playnix-favicon-gradient" x1="8" y1="9" x2="56" y2="56" gradientUnits="userSpaceOnUse">
      <stop offset="0%" stop-color="#8B5CF6"/>
      <stop offset="48%" stop-color="#EC4899"/>
      <stop offset="100%" stop-color="#FB923C"/>
    </linearGradient>
  </defs>
  <path fill="url(#playnix-favicon-gradient)" d="M16 8h24.5C52 8 60 15.8 60 27.1S52 46 40.5 46H29v6.7A7.3 7.3 0 0 1 21.7 60H16V8Z"/>
  <path fill="url(#playnix-favicon-gradient)" d="M16 43.5c5.7-8.2 12.7-12.3 21-12.3h5.1V46H30.7c-6.2 0-10.4 2.9-14.7 9.4V43.5Z" opacity=".92"/>
  <path fill="#0B0B0F" d="M31 22.8c0-1.9 2.1-3.1 3.7-2l14.5 8.9c1.5.9 1.5 3.2 0 4.1l-14.5 8.9c-1.6 1-3.7-.2-3.7-2V22.8Z"/>
</svg>
